<?xml version="1.0" encoding="UTF-8"?><svg id="Layer_1" xmlns="http://www.w3.org/2000/svg" viewBox="0 0 372.0473 372.0473"><defs><style>.cls-1{stroke-width:.7087px;}.cls-1,.cls-2{fill:none;stroke:#ef4371;stroke-linecap:round;stroke-linejoin:round;}.cls-2{stroke-width:.7087px;}.cls-3{fill:#231f20;}</style></defs><circle class="cls-1" cx="186.0236" cy="186.0236" r="185.6693"/><path class="cls-3" d="m56.5236,84.7236c3.5-4.5,7.3-8.9,11.3-13l-11.2-10.8c-4.4,4.5-8.5,9.3-12.4,14.2l12.3,9.6Z"/><path class="cls-3" d="m21.7236,186.0236H6.1236c0,5.3.2,10.5.7,15.7l15.5-1.4c-.4-4.8-.7-9.5-.6-14.3Z"/><path class="cls-3" d="m98.7236,325.3236c-.3-.2-.5-.3-.8-.5s-.5-.3-.8-.5c-.3-.1-.5-.3-.8-.5-.1-.1-.3-.2-.4-.3-.1-.1-.3-.2-.4-.3-.1-.1-.3-.2-.4-.3-.1,0-.1-.1-.2-.1s-.1-.1-.2-.1-.1-.1-.2-.1-.1-.1-.2-.1c0-.1-.1,0-.1-.1s-.1-.1-.1-.1h0l-8.7,12.9c1.8,1.2,3.5,2.3,5.3,3.4l8-13.3Z"/><path class="cls-3" d="m20.4236,256.3236l14.3-6.1c2.6,6.2,5.6,12.2,9,18l-13.5,7.8c-3.7-6.4-7-13-9.8-19.7Z"/><path class="cls-3" d="m82.9237,38.5236c-5.2,3.6-10.2,7.5-14.9,11.6l10.2,11.8c4.4-3.8,8.9-7.3,13.6-10.6l-8.9-12.8Z"/><path class="cls-3" d="m13.2236,136.3236c-.9,3-1.7,6-2.4,9.1l15.1,3.5c.6-2.7,1.3-5.5,2.1-8.3l-14.8-4.3Z"/><path class="cls-3" d="m140.7237,27.8236l-4.3-14.9c-4,1.2-8,2.5-11.9,3.9l5.3,14.6c3.6-1.3,7.3-2.5,10.9-3.6Z"/><path class="cls-3" d="m25.2236,220.1236l-15.2,3.2c1.1,5.1,2.4,10.2,3.9,15.2l14.9-4.5c-1.4-4.5-2.6-9.2-3.6-13.9Z"/><path class="cls-3" d="m284.5236,54.0236c-.3-.2-.5-.4-.8-.6-.3-.2-.5-.4-.8-.6-.1-.1-.3-.2-.4-.3s-.3-.2-.4-.3-.3-.2-.4-.3c-.1,0-.1-.1-.2-.1s-.1-.1-.2-.1-.1-.1-.2-.1-.1-.1-.2-.1c0-.1-.1,0-.1-.1s-.1-.1-.1-.1h-.3l8.9-12.8c1.7,1.2,3.4,2.4,5.1,3.7l-9.4,12.4c-.2-.1-.5-.3-.5-.6Z"/><path class="cls-3" d="m270.8237,45.1236l8-13.4c-8.1-4.8-16.6-9.1-25.3-12.6l-5.8,14.4c7.9,3.2,15.7,7.1,23.1,11.6Z"/><path class="cls-3" d="m44.2236,296.7236c-3.9-4.9-7.5-10.1-10.8-15.4l13.2-8.2c3.1,4.9,6.4,9.6,9.9,14.1l-12.3,9.5Z"/><path class="cls-3" d="m35.2236,87.9236c1.7-2.7,3.4-5.2,5.3-7.8l12.6,9.2c-1.7,2.3-3.3,4.7-4.9,7.1l-13-8.5Z"/><path class="cls-3" d="m39.6236,111.4236l-13.9-7.1c1.9-3.7,3.9-7.4,6.1-11l13.3,8c-2,3.2-3.8,6.6-5.5,10.1Z"/><path class="cls-3" d="m259.3237,351.0236c-52.6,23.5-113.3,20.3-163.2-8.5l7.8-13.5h.6c.1,0,.1.1.2.1s.1.1.2.1.1.1.2.1.1.1.2.1.1.1.2.1q.2.1.4.2c.2.1.3.1.4.2s.3.1.4.2.3.1.4.2.3.1.4.2.3.1.4.2.3.1.4.2c.3.1.5.3.8.4s.5.3.8.4.5.3.8.4.5.3.8.4.5.3.8.4.5.3.8.4c.5.3,1.1.6,1.6.8.5.3,1.1.6,1.6.8s1.1.5,1.6.7,1.1.5,1.6.7,1.1.5,1.6.7,1.1.4,1.6.7,1.1.5,1.6.7,1,.4,1.6.6c1.1.5,2.2.9,3.3,1.3,1.1.4,2.2.8,3.3,1.2,1.2.4,2.3.7,3.4,1.1,1.1.3,2.3.7,3.4,1,1.1.4,2.3.7,3.4,1,1.2.3,2.3.6,3.5.9s2.3.5,3.5.8c2.4.5,4.7,1,7.1,1.4s4.8.8,7.2,1.1c2.4.3,4.9.6,7.3.8,2.5.2,4.9.4,7.4.5,2.4.1,4.9.2,7.4.2,2,0,3.9,0,5.9-.1s3.9-.2,5.9-.3c1.9-.1,3.9-.3,5.8-.5,2-.2,3.9-.4,5.8-.7s3.8-.6,5.7-.9c1.8-.3,3.7-.7,5.6-1.1,1.9-.4,3.7-.8,5.6-1.3s3.7-1,5.5-1.5c3.6-1,7.2-2.2,10.7-3.5s7-2.7,10.4-4.2l6.3,14.7999Z"/><path class="cls-3" d="m338.7237,281.3236c-3.9,6.2-8.2,12.2-12.8,17.9l-12.1-9.8c4.2-5.2,8.2-10.6,11.7-16.3l13.2,8.2Z"/><path class="cls-3" d="m21.9236,177.4236c.4-7.7,1.3-15.3,2.8-22.8l-15.3-3c-1.6,8.2-2.7,16.5-3.1,24.9l15.6.9Z"/><path class="cls-3" d="m349.5236,203.2236l15.5,1.6c.6-5.2.9-10.5,1-15.7l-15.6-.3c0,4.8-.3,9.6-.9,14.4Z"/><path class="cls-3" d="m350.5236,176.0236c-.1-1.5-.3-3.1-.4-4.6-.2-1.5-.3-3.1-.5-4.6-.2-1.6-.4-3.1-.6-4.6s-.4-3-.7-4.5c-.3-1.5-.6-3-.9-4.5-.2-.7-.3-1.5-.5-2.2s-.4-1.5-.5-2.2-.3-1.4-.5-2.2-.4-1.5-.6-2.2c-.2-.8-.4-1.4-.6-2.2s-.4-1.5-.6-2.2-.4-1.4-.6-2.1c-.1-.4-.2-.7-.3-1.1-.1-.4-.2-.7-.3-1.1-.2-.4-.3-.7-.4-1.1-.2-.4-.3-.7-.4-1.1-.2-.4-.3-.7-.4-1.1-.1-.1-.1-.3-.2-.5s-.1-.3-.2-.5-.1-.3-.2-.5-.1-.3-.2-.5-.1-.3-.2-.5-.1-.3-.2-.5c0-.1-.1-.2-.1-.3s-.1-.2-.1-.3-.1-.2-.1-.3-.1-.2-.1-.3v-.8h0l14.5-5.6c.6,1.6,1.1,3.2,1.7,4.7s1.1,3.1,1.6,4.7c.6,1.6,1.1,3.2,1.5,4.8s.9,3.2,1.3,4.8.8,3.2,1.2,4.8c.4,1.7.8,3.3,1.1,4.9.2.8.4,1.6.5,2.4s.3,1.6.4,2.4c.1.8.2,1.5.4,2.4.2.9.3,1.7.4,2.5.1.9.2,1.6.3,2.5s.2,1.7.3,2.5c0,.4,0,.8.1,1.2,0,.4.1.8.1,1.2s.1.8.1,1.2.1.8.1,1.2.1.8.1,1.2.1.8.1,1.2.1.8.1,1.2v6.1001h0l-15.6.5c-.0999-1.5-.1999-3.1.1001-4.2Z"/><path class="cls-3" d="m149.1236,25.7236h0q.1,0,0,0c.1,0-.1,0-.1,0h.9c.1-.1.2-.1.3-.1.1-.1.2-.1.3-.1.1-.1.2,0,.3-.1s.2,0,.3-.1.2-.1.3-.1c.1-.1.2-.1.3-.1.2,0,.4-.1.6-.1s.4-.1.6-.1.4-.1.6-.1.4-.1.6-.1.4-.1.6-.1.4-.1.6-.1.4-.1.6-.1c.3-.1.8-.1,1.1-.2s.8-.1,1.1-.2.8-.1,1.1-.2.8-.1,1.1-.2.7-.1,1.1-.2c.3-.1.7-.2,1.1-.2.8-.1,1.5-.2,2.3-.3s1.6-.3,2.3-.3,1.5-.1,2.3-.2c.7-.1,1.5-.1,2.3-.2.7-.1,1.5-.1,2.3-.2.8,0,1.6-.1,2.4-.1s1.6-.1,2.4-.1c.8-.1,1.6-.1,2.4-.1,1.6-.1,3.2-.1,4.8-.1h5.6c.4.1.9,0,1.4.1s.9.1,1.4.1c1,.1,2,.1,2.9.2l1.0999-15.6h0v-.3h-17.6001c-.7,0-1.5.1-2.2.1s-1.5.1-2.2.1-1.4999.1-2.1999.1c-.8,0-1.5.1-2.2.3-1.5.1-2.9.2-4.4.4-1.5.1-2.9.3-4.4.5s-2.9.4-4.4.6-2.9.5-4.4.7-3,.5-4.4.8c-1.5.2-3,.6-4.4.9l3.5,15.1h0Z"/><path class="cls-3" d="m304.2237,321.8236l-10.2-11.8c2.9-2.5,5.7-5.1,8.4-7.8l11,11c-3,3-6.1,5.9-9.2,8.6Z"/><circle class="cls-2" cx="186.021" cy="186.0236" r="118.3465"/></svg>